<?xml version="1.0" encoding="utf-8"?>
<!-- Generator: Adobe Illustrator 19.2.0, SVG Export Plug-In . SVG Version: 6.00 Build 0)  -->
<svg version="1.1" id="Layer_1" xmlns="http://www.w3.org/2000/svg" xmlns:xlink="http://www.w3.org/1999/xlink" x="0px" y="0px"
	 viewBox="0 0 477.3 36" style="enable-background:new 0 0 477.3 36;" xml:space="preserve">
<style type="text/css">
	.st0{fill:#6FCBDC;}
	.st1{fill:#231F20;}
</style>
<g>
	<rect y="25.4" class="st0" width="402.7" height="10.6"/>
	<rect x="416.1" y="10.8" class="st0" width="61.2" height="10.6"/>
	<g>
		<path class="st1" d="M0,21.7h4.9c0.1,7,4.4,10,10.4,10c4.5,0,9.6-1.6,9.6-6.1c0-9.7-23.4-0.2-23.4-15.2C1.5,3.5,7.8,0,14.9,0
			c8.6,0,14.2,5.1,14.4,13.6h-4.9c0-5.8-3.6-9.3-9.4-9.3c-4.2,0-8.6,1.8-8.6,6c0,9.7,23.4,0.2,23.4,15.2C29.7,33,22.7,36,15.1,36
			C7,36,0,31.5,0,21.7z"/>
		<path class="st1" d="M35.3,18c0-10.3,7.6-18,17.9-18C63.4,0,71,7.8,71,18s-7.6,18-17.9,18C42.9,36,35.3,28.3,35.3,18z M66,18
			c0-7.7-5.2-13.5-12.9-13.5S40.3,10.4,40.3,18s5.2,13.5,12.9,13.5S66,25.7,66,18z"/>
		<path class="st1" d="M75.9,18c0-10.6,7.7-18,18.3-18c9,0,16,6.2,17.1,14.5h-5c-0.9-5.9-6.1-10-12.1-10C86.2,4.5,81,10,81,18
			s5.3,13.5,13.3,13.5c6.2,0,10.8-4,12.1-10h5.1C110,30,103.3,36,94.2,36C83.6,36,75.9,28.6,75.9,18z"/>
		<path class="st1" d="M117.8,0.5h4.9v35h-4.9V0.5z"/>
		<path class="st1" d="M142.5,0.5h5l15.3,35h-5.3l-3.6-8.7h-17.9l-3.7,8.7h-5L142.5,0.5z M152,22.6l-7.1-16.7h-0.1l-7.1,16.7H152z"
			/>
		<path class="st1" d="M167.2,0.5h4.9V31h20.8v4.5h-25.7V0.5z"/>
		<path class="st1" d="M208.8,0.5h13.3c11.6,0,19.1,5.7,19.1,17.3s-8.1,17.7-19.7,17.7h-12.7V0.5z M220.9,31
			c9.4,0,15.4-3.9,15.4-13.2S230.7,5,221.3,5h-7.6v26H220.9z"/>
		<path class="st1" d="M247.7,0.5h4.9v35h-4.9V0.5z"/>
		<path class="st1" d="M259.1,18c0-10.6,7.7-18,18.3-18c8.3,0,14.6,4.5,16.2,12.8h-5.1c-1.1-5.2-5.4-8.3-11.2-8.3
			c-8,0-13.3,5.5-13.3,13.5s5.3,13.5,13.3,13.5c6.6,0,11.6-3.5,11.9-10.1h-18.1v-4.5H294v9.3l1.5,9.3h-4.2l-1.1-6.1h-0.1
			c-2.2,4.2-6.9,6.6-12.8,6.6C266.7,36,259.1,28.6,259.1,18z"/>
		<path class="st1" d="M301.7,0.5h4.9v35h-4.9V0.5z"/>
		<path class="st1" d="M323.4,5h-12.3V0.5h29.5V5h-12.3v30.5h-4.9V5z"/>
		<path class="st1" d="M352.3,0.5h5l15.2,35h-5.3l-3.7-8.7h-17.9l-3.7,8.7h-5L352.3,0.5z M361.8,22.6l-7.1-16.7h-0.1l-7.1,16.7
			H361.8z"/>
		<path class="st1" d="M377.1,0.5h4.9V31h20.8v4.5h-25.7V0.5z"/>
	</g>
	<g>
		<path class="st1" d="M416.1,18.3c9.1-6.9,11.2-8.7,11.2-11.6c0-1.8-1.1-3.2-3.4-3.2c-2.5,0-3.6,1.7-3.6,4.4h-3.8
			c0-4,2.1-7.7,7.4-7.7c4.2,0,7.2,2.5,7.2,6.5c0,4.1-3.3,6.8-9,11.1v0.1h9.7v3.3h-15.8V18.3z"/>
		<path class="st1" d="M435.2,15.9h21v4.2h-21V15.9z"/>
		<path class="st1" d="M459.7,10.8c0-6.1,3.2-10.6,8.8-10.6c5.5,0,8.8,4.5,8.8,10.6c0,6.1-3.2,10.6-8.8,10.6
			C462.9,21.4,459.7,16.9,459.7,10.8z M473.4,10.8c0-4.1-1.8-7.3-4.9-7.3c-3.1,0-4.9,3.2-4.9,7.3c0,4.2,1.8,7.3,4.9,7.3
			C471.5,18.1,473.4,15,473.4,10.8z"/>
	</g>
</g>
</svg>
